<svg width="2500" height="502" viewBox="0 0 2500 502" fill="none" xmlns="http://www.w3.org/2000/svg">
<path d="M290.123 92.821L145.062 185.414L290.123 278.006L145.062 370.599L0 277.235L145.062 184.642L0 92.821L145.062 0.228394L290.123 92.821ZM144.29 399.92L289.352 307.327L434.414 399.92L289.352 492.512L144.29 399.92ZM290.123 277.235L435.185 184.642L290.123 92.821L434.414 0.228394L579.475 92.821L434.414 185.414L579.475 278.006L434.414 370.599L290.123 277.235Z" fill="#498FE8"/>
<path d="M692.901 92.821H810.185C885.031 92.821 946.759 136.031 946.759 234.796V255.63C946.759 355.167 888.889 399.92 812.5 399.92H692.901V92.821ZM758.488 148.377V343.593H808.642C851.08 343.593 879.63 315.815 879.63 254.086V237.883C879.63 176.154 849.537 148.377 806.327 148.377H758.488V148.377ZM981.482 151.463H1033.95L1042.44 209.333C1052.47 169.981 1077.93 149.148 1124.23 149.148H1140.43V215.506H1113.43C1060.19 215.506 1047.07 234.025 1047.07 286.494V400.691H982.253V151.463H981.482V151.463ZM1153.55 281.093V274.148C1153.55 190.815 1206.79 145.29 1279.32 145.29C1353.4 145.29 1405.09 190.815 1405.09 274.148V281.093C1405.09 362.883 1354.94 406.864 1279.32 406.864C1199.07 406.093 1153.55 362.883 1153.55 281.093V281.093ZM1338.73 280.321V274.148C1338.73 227.852 1315.59 200.074 1278.55 200.074C1242.28 200.074 1218.36 225.537 1218.36 274.148V280.321C1218.36 325.074 1241.51 350.537 1278.55 350.537C1315.59 349.765 1338.73 325.074 1338.73 280.321ZM1439.04 151.463H1493.06L1499.23 198.531C1512.35 166.895 1540.12 145.29 1581.02 145.29C1644.29 145.29 1685.96 190.815 1685.96 274.92V281.864C1685.96 363.654 1639.66 406.864 1581.02 406.864C1541.67 406.864 1514.66 389.117 1501.54 360.568V486.34H1438.27L1439.04 151.463V151.463ZM1620.37 280.321V274.92C1620.37 225.537 1594.91 200.846 1560.96 200.846C1524.69 200.846 1500.77 228.623 1500.77 274.92V279.549C1500.77 323.531 1523.92 351.309 1560.19 351.309C1597.22 350.537 1620.37 326.617 1620.37 280.321ZM1781.64 354.395L1776.23 399.92H1720.68V68.1296H1783.95V195.444C1797.84 163.037 1825.62 145.29 1864.97 145.29C1924.38 146.062 1968.36 186.957 1968.36 269.519V277.235C1968.36 359.796 1926.7 406.864 1863.43 406.864C1821.76 406.093 1794.75 386.802 1781.64 354.395V354.395ZM1902.01 277.235V271.062C1902.01 225.537 1877.31 200.074 1842.59 200.074C1807.1 200.074 1782.41 228.623 1782.41 271.833V277.235C1782.41 323.531 1806.33 350.537 1841.82 350.537C1879.63 350.537 1902.01 326.617 1902.01 277.235V277.235ZM1996.14 281.093V274.148C1996.14 190.815 2049.38 145.29 2121.91 145.29C2195.99 145.29 2247.69 190.815 2247.69 274.148V281.093C2247.69 362.883 2196.76 406.864 2121.91 406.864C2041.67 406.093 1996.14 362.883 1996.14 281.093V281.093ZM2182.1 280.321V274.148C2182.1 227.852 2158.95 200.074 2121.91 200.074C2085.65 200.074 2061.73 225.537 2061.73 274.148V280.321C2061.73 325.074 2084.88 350.537 2121.91 350.537C2158.95 349.765 2182.1 325.074 2182.1 280.321ZM2332.56 271.062L2245.37 151.463H2320.22L2370.37 226.309L2421.3 151.463H2495.37L2406.64 270.29L2500 399.92H2426.7L2369.6 317.358L2314.04 399.92H2237.65L2332.56 271.062Z" fill="#498FE8"/>
</svg>
