<svg width="550" height="545" viewBox="0 0 550 545" fill="none" xmlns="http://www.w3.org/2000/svg">
<path d="M523.401 414.854C524.927 414.403 526.269 413.465 527.227 412.179C528.186 410.894 528.711 409.329 528.723 407.717C528.736 406.105 528.236 404.532 527.298 403.23C526.36 401.929 525.033 400.969 523.515 400.493L245.806 236.985C242.074 235.051 237.942 234.043 233.751 234.043C229.56 234.043 225.429 235.051 221.697 236.985L4.99929 363.87C3.54084 364.376 2.27486 365.332 1.3785 366.604C0.482142 367.876 0.000224408 369.4 0.000224408 370.964C0.000224408 372.527 0.482142 374.052 1.3785 375.324C2.27486 376.596 3.54084 377.552 4.99929 378.058L282.652 541.739C286.374 543.673 290.496 544.681 294.678 544.681C298.86 544.681 302.982 543.673 306.704 541.739L523.401 414.854Z" fill="#E2E5F1"/>
<path d="M544.56 355.416C546.119 354.946 547.491 353.969 548.471 352.629C549.45 351.289 549.987 349.659 550 347.979C550.013 346.3 549.502 344.661 548.543 343.305C547.584 341.949 546.228 340.949 544.676 340.453L260.82 170.087C257.006 168.072 252.783 167.021 248.499 167.021C244.215 167.021 239.992 168.072 236.178 170.087L14.6841 302.293C13.1934 302.821 11.8994 303.817 10.9832 305.142C10.067 306.468 9.57439 308.056 9.57439 309.685C9.57439 311.314 10.067 312.902 10.9832 314.228C11.8994 315.553 13.1934 316.549 14.6841 317.077L298.482 487.623C302.286 489.637 306.5 490.688 310.774 490.688C315.049 490.688 319.262 489.637 323.066 487.623L544.56 355.416Z" fill="url(#paint0_linear)"/>
<path d="M399.704 287.468C399.714 290.506 400.73 293.454 402.593 295.854C409.195 287.6 424.514 283.837 435.507 283.837C446.501 283.837 462.066 287.7 468.718 296.052C470.606 293.638 471.634 290.664 471.64 287.6V287.6V287.369C471.376 273.141 449.818 266.703 435.557 266.703C426.886 266.545 418.313 268.553 410.615 272.546C402.758 276.954 399.704 282.45 399.704 287.402V287.468Z" fill="url(#paint1_linear)"/>
<path d="M475.866 315.662C471.64 329.544 467.398 340.422 463.189 355.278C460.515 364.604 446.286 368.83 435.573 368.83C422.995 368.83 410.136 363.647 407.743 355.129C404.177 342.386 400.617 329.649 397.063 316.916C406.967 324.708 423.474 328.372 435.771 328.372C449.026 328.372 466.325 324.278 475.866 315.662Z" fill="url(#paint2_linear)"/>
<path d="M388.298 300.872V287.452C388.298 306.319 416.92 314.952 435.837 314.952C454.754 314.952 482.947 306.336 483.013 287.666V301.086C483.013 319.706 455.133 328.372 435.854 328.372C416.887 328.372 388.298 319.805 388.298 300.872Z" fill="url(#paint3_linear)"/>
<path d="M388.298 287.452C388.298 268.634 416.722 260.117 435.523 260.117C454.325 260.117 483.013 268.733 483.013 287.617C483.013 306.501 454.638 314.952 435.837 314.952C417.036 314.952 388.298 306.336 388.298 287.452ZM410.565 272.596C403.302 276.673 399.654 282.087 399.654 287.452C399.654 301.796 421.361 308.349 435.755 308.349C450.148 308.349 471.59 301.928 471.59 287.584C471.59 273.24 449.934 266.703 435.556 266.703C426.886 266.545 418.313 268.553 410.615 272.546" fill="url(#paint4_linear)"/>
<path d="M468.718 296.052C462.363 304.487 446.897 308.382 435.804 308.382C424.712 308.382 408.948 304.388 402.593 295.854C409.195 287.601 424.514 283.837 435.507 283.837C446.501 283.837 462.066 287.716 468.718 296.052Z" fill="url(#paint5_linear)"/>
<path d="M437.19 281.08C437.19 281.08 430.043 262.576 446.682 253.91C448.569 255.623 450.063 257.724 451.061 260.069C452.058 262.414 452.535 264.948 452.459 267.495C452.459 278.406 437.19 281.08 437.19 281.08Z" fill="url(#paint6_linear)"/>
<path d="M451.568 293.741C451.568 293.741 463.122 290.093 463.122 277.713C463.122 270.153 456.52 264.376 456.52 264.376C456.52 264.376 440.954 272.778 440.954 280.073C440.782 283.248 441.76 286.377 443.71 288.888C445.66 291.399 448.45 293.122 451.568 293.741V293.741Z" fill="url(#paint7_linear)"/>
<path d="M434.847 279.05C437.818 273.718 438.296 261.206 423.853 252.128C423.853 252.128 418.01 256.684 418.01 267.495C418.01 278.307 434.847 279.05 434.847 279.05Z" fill="url(#paint8_linear)"/>
<path d="M444.965 304.668C444.965 304.668 447.854 297.653 453.417 297.653C458.979 297.653 455.794 303.298 444.965 304.668Z" fill="url(#paint9_linear)"/>
<path d="M450.544 296.151C450.544 296.151 456.173 279.644 467.315 279.05C468.434 281.769 469.065 284.663 469.18 287.601C469.18 291.744 463.056 296.151 450.544 296.151Z" fill="url(#paint10_linear)"/>
<path d="M415.352 302.374C415.352 302.374 415.038 298.346 409.575 296.151C409.575 296.151 407.726 300.69 415.352 302.374Z" fill="url(#paint11_linear)"/>
<path d="M420.931 284.712C420.931 284.712 421.129 270.615 405.448 270.615C405.448 270.615 401.635 290.225 420.931 284.712Z" fill="url(#paint12_linear)"/>
<path d="M440.36 295.177C441.423 291.645 442.066 287.999 442.275 284.316C442.275 276.475 425.355 266.984 425.355 266.984C423.011 268.492 421.1 270.585 419.812 273.057C418.524 275.529 417.903 278.295 418.01 281.08C418.01 291.199 431.826 295.177 440.36 295.177Z" fill="url(#paint13_linear)"/>
<path d="M437.323 304.668C437.323 304.668 429.697 303.232 429.697 296.217C429.697 289.202 442.077 285.686 442.077 285.686C442.077 285.686 448.267 287.551 448.267 293.741C448.267 302.192 437.323 304.668 437.323 304.668Z" fill="url(#paint14_linear)"/>
<path d="M434.747 301.648C434.747 301.648 434.516 289.878 409.575 281.08C409.575 281.08 407.099 282.5 407.099 286.825C407.099 291.15 412.876 301.648 434.747 301.648Z" fill="url(#paint15_linear)"/>
<path d="M440.888 306.204C440.888 306.204 440.492 299.056 425.092 293.956C425.092 293.956 419.446 296.993 419.446 301.252C419.446 305.51 425.504 308.333 434.17 308.333C436.552 308.192 438.861 307.46 440.888 306.204V306.204Z" fill="url(#paint16_linear)"/>
<path d="M400.995 370.615C395.873 366.55 391.32 370.412 388.535 372.079H388.413H388.596C393.983 372.811 399.613 380.209 399.613 386.978C399.619 387.803 399.509 388.623 399.288 389.417C399.123 389.607 398.931 389.771 398.719 389.905C402.621 387.629 403.8 387.161 404.817 385.84C408.089 381.714 405.955 374.498 400.995 370.615Z" fill="#ED5145"/>
<path d="M399.552 387.019C399.552 379.844 393.291 372.058 387.661 372.058C384.022 372.058 381.969 375.046 381.969 378.848C381.969 385.413 387.905 393.706 393.901 393.706C396.747 393.706 399.552 391.633 399.552 387.019Z" fill="#E6E6E6"/>
<path d="M305.582 435.925C304.369 434.469 302.83 433.32 301.089 432.571L300.541 432.286C299.786 431.13 298.906 430.06 297.919 429.095C296.392 428.351 294.718 427.962 293.02 427.957L279.787 447.633L300.5 447.308C301.664 446.44 302.74 445.46 303.712 444.381C304.146 443.675 304.345 442.849 304.281 442.023C304.281 442.023 304.626 441.312 304.972 440.356C305.649 438.984 305.863 437.429 305.582 435.925V435.925Z" fill="#E5C59A"/>
<path d="M304.281 442.023L397.519 387.812L393.739 393.117L300.5 447.308C301.678 446.434 302.767 445.447 303.752 444.36C304.168 443.655 304.353 442.838 304.281 442.023V442.023Z" fill="url(#paint17_linear)"/>
<path d="M300.541 432.327L393.779 378.156L397.519 387.812L304.281 442.023C304.281 442.023 306.313 437.632 305.582 435.925C304.85 434.218 300.541 432.327 300.541 432.327Z" fill="url(#paint18_linear)"/>
<path d="M293.02 427.998L386.258 373.827L393.779 378.156L300.54 432.327C299.785 431.171 298.913 430.095 297.939 429.115C296.401 428.386 294.721 428.004 293.02 427.998Z" fill="url(#paint19_linear)"/>
<path d="M288.731 447.491C289.036 447.278 289.278 446.985 289.428 446.645C289.579 446.304 289.633 445.929 289.585 445.56C289.523 444.553 289.225 443.574 288.712 442.705C288.2 441.836 287.489 441.101 286.637 440.559C286.362 440.367 286.043 440.246 285.71 440.207C285.377 440.168 285.039 440.212 284.726 440.336L279.787 447.633L288.731 447.491Z" fill="#333333"/>
<path d="M199.573 259.668C182.614 249.876 155.156 249.876 138.338 259.668C121.52 269.459 121.52 285.429 138.54 295.14C155.56 304.851 182.957 304.932 199.775 295.14C216.592 285.348 216.552 269.459 199.573 259.668" fill="url(#paint20_linear)"/>
<path d="M209.566 212.989C205.528 210.607 199.835 210.849 193.617 214.261C193.699 213.639 193.739 213.012 193.738 212.384C193.74 210.432 193.363 208.498 192.627 206.69C195.504 206.168 198.473 206.66 201.026 208.083L209.566 212.989Z" fill="url(#paint21_linear)"/>
<path d="M216.411 227.93C216.411 242.527 206.316 260.354 193.617 267.945V259.667C202.298 254.358 209.264 242.123 209.223 232.069C209.183 222.014 202.318 217.936 193.738 222.438V214.201C206.316 207.417 216.411 213.434 216.411 227.93Z" fill="url(#paint22_linear)"/>
<path d="M209.203 232.068C209.203 242.163 202.278 254.277 193.597 259.667V246.564C197.872 240.947 200.324 234.155 200.623 227.102C200.681 224.887 200.247 222.687 199.351 220.661C201.121 220.472 202.907 220.839 204.459 221.711C207.386 223.407 209.203 226.981 209.203 232.068Z" fill="url(#paint23_linear)"/>
<path d="M186.469 212.364C186.469 225.971 165.957 232.069 152.41 232.069C143.972 232.237 135.631 230.243 128.183 226.274C121.48 222.398 118.088 217.29 118.088 212.142C118.148 198.615 138.56 192.558 152.208 192.558C165.856 192.558 186.469 198.716 186.469 212.364Z" fill="url(#paint24_linear)"/>
<path d="M193.738 212.424L193.536 282.078C193.536 298.512 168.804 305.962 152.228 305.962C135.653 305.962 110.638 298.431 110.638 281.876L110.84 212.222C110.84 228.778 135.754 236.308 152.43 236.308C169.107 236.308 193.698 228.899 193.738 212.424Z" fill="url(#paint25_linear)"/>
<path d="M152.148 188.298C168.865 188.298 193.738 195.849 193.738 212.384C193.738 228.919 168.885 236.308 152.431 236.308C135.976 236.308 110.84 228.899 110.84 212.222C110.84 195.546 135.653 188.298 152.148 188.298ZM128.183 226.315C135.635 230.274 143.973 232.268 152.41 232.109C165.978 232.109 186.47 226.052 186.47 212.364C186.47 198.675 165.937 192.558 152.188 192.558C138.439 192.558 118.109 198.615 118.109 212.243C118.109 217.35 121.48 222.337 128.203 226.375" fill="url(#paint26_linear)"/>
<path d="M186.469 212.364C186.469 225.971 165.957 232.069 152.41 232.069C143.972 232.237 135.631 230.243 128.183 226.274C121.48 222.398 118.088 217.29 118.088 212.142C118.148 198.615 138.56 192.558 152.208 192.558C165.856 192.558 186.469 198.716 186.469 212.364Z" fill="url(#paint27_linear)"/>
<path d="M122.833 222.256C124.43 223.832 126.229 225.19 128.183 226.294C135.632 230.263 143.972 232.257 152.41 232.089C162 232.089 175.043 229.04 181.867 222.438C182.271 222.034 174.316 217.411 173.609 217.108C172.277 216.502 170.763 216.22 169.571 215.614C167.967 214.514 166.248 213.593 164.443 212.868C162.442 212.49 160.388 212.49 158.386 212.868C155.257 213.252 152.632 212.707 149.584 212.868C146.302 213.008 143.042 213.474 139.853 214.261C136.58 214.989 133.393 216.058 130.343 217.451C129.596 217.653 122.49 221.913 122.833 222.256Z" fill="url(#paint28_linear)"/>
<path d="M193.738 212.424V214.201C193.699 214.187 193.656 214.187 193.617 214.201C193.696 213.612 193.736 213.019 193.738 212.424V212.424Z" fill="url(#paint29_linear)"/>
<path d="M299.991 272.942L242.466 300.086C241.574 300.508 240.814 301.165 240.268 301.985C239.722 302.805 239.411 303.758 239.367 304.741C239.323 305.724 239.549 306.701 240.02 307.566C240.491 308.431 241.19 309.151 242.041 309.65L302.358 344.811C306.005 346.937 310.196 347.955 314.416 347.739C318.636 347.523 322.701 346.082 326.111 343.594L370.826 310.922C371.321 310.561 371.718 310.083 371.982 309.531C372.245 308.979 372.367 308.37 372.336 307.76C372.305 307.149 372.122 306.556 371.803 306.034C371.485 305.511 371.041 305.076 370.512 304.767L317.238 273.698C314.642 272.182 311.714 271.321 308.709 271.19C305.703 271.058 302.711 271.659 299.991 272.942V272.942Z" fill="url(#paint30_linear)"/>
<path d="M343.4 229.984L351.064 234.415C350.3 234.09 349.465 233.967 348.639 234.058C347.813 234.148 347.025 234.449 346.351 234.932L342.51 237.129L287.772 205.481L285.768 198.096C285.723 197.924 285.661 197.757 285.583 197.597C285.323 196.781 284.776 196.086 284.042 195.64L343.4 229.984Z" fill="url(#paint31_linear)"/>
<path d="M343.4 229.984L351.064 234.415C350.3 234.09 349.465 233.967 348.639 234.058C347.813 234.148 347.025 234.449 346.351 234.932L342.51 237.129L287.772 205.481L285.768 198.096C285.723 197.924 285.661 197.757 285.583 197.597C285.323 196.781 284.776 196.086 284.042 195.64L343.4 229.984Z" fill="url(#paint32_linear)"/>
<path d="M288.28 189.03C285.983 187.704 282.722 187.925 279.368 189.895L275.532 192.086L342.553 230.746L346.388 228.537C349.816 226.567 353.003 226.346 355.319 227.672L288.28 189.03Z" fill="url(#paint33_linear)"/>
<path d="M342.554 237.129L287.907 205.27L275.551 198.058L275.532 191.385L285.721 197.333L342.535 230.456L342.554 237.129Z" fill="#E6E6E6"/>
<path d="M370.859 299.242C368.729 303.905 365.281 307.847 360.938 310.583L311.517 346.752C308.097 349.261 304.015 350.714 299.776 350.931C295.537 351.148 291.327 350.12 287.668 347.974L227.176 312.674C226.344 312.195 225.655 311.504 225.179 310.671C224.704 309.839 224.458 308.895 224.469 307.937V301.351C224.463 302.303 224.711 303.24 225.186 304.065C225.662 304.891 226.349 305.576 227.176 306.05L287.668 341.35C291.33 343.487 295.538 344.51 299.775 344.293C304.012 344.076 308.093 342.629 311.517 340.129L355.894 307.678L360.938 303.978C363.282 302.507 365.144 300.385 366.297 297.873C367.522 295.611 367.921 292.996 367.428 290.473L353.112 237.837C353.039 237.563 352.939 237.297 352.815 237.042C352.726 236.833 352.614 236.634 352.481 236.45C352.443 236.375 352.393 236.306 352.333 236.246C352.261 236.135 352.174 236.036 352.073 235.95C352.016 235.884 351.954 235.822 351.888 235.765C351.732 235.62 351.557 235.495 351.369 235.395V235.395C350.605 235.07 349.771 234.946 348.945 235.037C348.12 235.128 347.332 235.43 346.658 235.913L342.82 238.115V231.473L343.728 230.955L346.658 229.271C348.336 228.238 350.252 227.652 352.222 227.569C352.481 227.55 352.741 227.55 353.001 227.569C353.161 227.55 353.323 227.55 353.483 227.569C353.798 227.615 354.108 227.689 354.41 227.791L354.911 227.976L355.393 228.217C356.235 228.721 356.965 229.391 357.539 230.187C358.113 230.982 358.518 231.885 358.731 232.842L373.047 285.496C373.933 290.192 373.16 295.05 370.859 299.242V299.242Z" fill="url(#paint34_linear)"/>
<path d="M367.898 290.309L353.54 237.243C353.311 236.225 352.689 235.34 351.81 234.782L284.54 195.64C284.976 195.915 285.354 196.274 285.651 196.696C285.948 197.118 286.158 197.596 286.269 198.1L300.553 251.129C301.042 253.673 300.634 256.308 299.4 258.585C298.356 261.071 296.595 263.187 294.341 264.661L227.591 296.348C226.694 296.775 225.93 297.438 225.38 298.268C224.831 299.097 224.518 300.061 224.474 301.056C224.43 302.05 224.657 303.038 225.131 303.913C225.605 304.788 226.308 305.517 227.164 306.022L287.85 341.585C291.52 343.736 295.737 344.766 299.983 344.547C304.229 344.329 308.318 342.872 311.749 340.355L361.314 303.953C363.664 302.474 365.527 300.335 366.67 297.802C367.939 295.524 368.373 292.873 367.898 290.309V290.309Z" fill="url(#paint35_linear)"/>
<path d="M412.402 130.345L189.75 1.84941C186.091 -0.304869 182.767 -0.509154 180.371 0.883699L174.502 4.30083C176.898 2.90798 180.204 3.09369 183.881 5.21083L406.533 133.706C410.36 136.195 413.545 139.553 415.827 143.506C418.108 147.46 419.423 151.897 419.663 156.456L419.125 338.251C419.125 342.411 417.639 345.327 415.28 346.701L421.149 343.284C423.526 341.91 424.993 338.994 424.993 334.853L425.532 153.039C425.283 148.49 423.964 144.064 421.683 140.12C419.401 136.177 416.221 132.828 412.402 130.345Z" fill="url(#paint36_linear)"/>
<path d="M419.149 310.961L170.213 166.917V194.378C170.448 198.933 171.751 203.369 174.015 207.325C176.28 211.281 179.442 214.648 183.246 217.152L405.911 345.958C413.189 350.163 419.112 346.777 419.13 338.516V311.054" fill="url(#paint37_linear)"/>
<path d="M406.046 133.368L183.853 4.88968C176.588 0.693117 170.676 4.07265 170.658 12.4286L170.213 166.792L418.704 310.533L419.149 156.152C418.911 151.588 417.6 147.146 415.323 143.187C413.046 139.227 409.867 135.863 406.046 133.368Z" fill="url(#paint38_linear)"/>
<path d="M182.979 158.681L183.368 21.1718L407.447 150.702L407.058 288.193L182.979 158.681Z" fill="url(#paint39_linear)"/>
<path d="M293.968 252.938C290.259 250.823 287.252 252.494 287.234 256.707C287.359 258.999 288.031 261.23 289.195 263.216C290.359 265.203 291.982 266.89 293.932 268.139C294.641 268.666 295.491 268.978 296.377 269.035C297.263 269.091 298.146 268.891 298.919 268.459C297.093 266.633 296.005 264.212 295.858 261.65C295.858 259.356 297.154 258.094 298.937 258.325C297.801 256.135 296.084 254.291 293.968 252.992" fill="url(#paint40_linear)"/>
<path d="M406.383 133.467L183.873 4.89106C176.597 0.691293 170.677 4.0734 170.658 12.4358L170.213 166.916L406.383 133.467Z" fill="url(#paint41_linear)"/>
<path d="M297.008 364.241C297.008 366.472 297.114 370.507 292.972 370.507C288.831 370.507 286.706 367.427 286.388 366.472C286.069 365.41 286.494 363.285 285.007 362.436C283.627 361.586 278.317 359.781 277.998 354.896C277.573 349.692 279.91 349.585 281.715 349.585C283.52 349.585 287.981 349.904 287.981 349.904L297.008 364.241Z" fill="#1E033C"/>
<path opacity="0.5" d="M279.591 349.904C278.317 351.497 278.529 354.046 279.485 355.958C281.503 359.781 286.282 359.25 286.706 361.48C287.131 363.71 289.574 367.427 292.441 367.852C294.565 368.171 295.84 367.534 296.902 366.578C296.689 368.49 295.84 370.401 292.866 370.401C288.618 370.401 286.6 367.321 286.282 366.365C285.963 365.303 286.388 363.179 284.901 362.33C283.52 361.48 278.21 359.675 277.892 354.789C277.679 351.603 278.529 350.435 279.591 349.904V349.904Z" fill="black"/>
<path d="M297.645 270.784C297.964 277.156 296.158 293.405 296.371 305.618C296.583 317.831 299.344 352.134 299.026 356.17C298.707 360.206 299.344 365.516 294.99 366.366C291.592 367.003 287.131 364.454 285.432 361.799C283.733 359.144 282.671 355.214 282.564 350.648C282.458 346.081 272.581 288.626 272.475 286.289C272.369 283.953 273.537 271.633 273.537 271.633L297.645 270.784V270.784Z" fill="#28419D"/>
<path d="M266.953 166.812C264.298 167.874 262.387 170.848 261.962 177.751C261.537 184.654 261.962 190.07 263.555 190.814C265.148 191.557 266.21 191.239 266.21 191.239L265.042 198.779L282.883 193.787C282.883 193.787 282.565 189.646 283.521 186.99C284.477 184.335 287.238 175.096 284.37 170.848C281.397 166.6 275.449 163.626 266.953 166.812V166.812Z" fill="#FFD04C"/>
<path d="M309.115 258.358C309.115 258.358 309.965 265.792 309.646 267.598C309.328 269.403 305.929 277.793 304.018 278.218C302.106 278.643 300.194 277.156 300.407 275.775C300.619 274.501 302.531 272.271 302.637 270.04C302.743 267.81 302.743 264.412 301.787 263.987C300.832 263.456 298.707 266.111 297.752 267.279C296.796 268.447 295.097 268.023 295.097 267.067C295.097 266.217 297.114 264.305 297.539 262.712C297.964 261.119 298.814 259.845 299.982 258.464C301.15 256.978 301.575 256.022 301.575 256.022L309.115 258.358V258.358Z" fill="#FFD04C"/>
<path d="M310.39 256.128C310.39 256.128 311.027 259.42 309.859 260.164C308.903 260.695 305.079 261.438 302.637 260.482C300.513 259.633 299.345 258.889 299.238 258.146C299.132 257.402 300.088 256.022 300.088 256.022L310.39 256.128V256.128Z" fill="white"/>
<path d="M268.228 375.605V379.959C268.228 380.809 268.121 383.039 263.661 382.721C259.2 382.402 256.864 381.446 256.652 381.128C256.439 380.809 255.908 379.959 255.908 379.959C255.908 379.959 248.262 380.597 242.739 378.26C237.004 375.817 233.606 370.507 238.491 368.277C241.465 366.897 243.164 368.596 247.624 368.065C252.403 367.534 255.165 365.197 255.165 365.197L268.228 375.605Z" fill="#1E033C"/>
<path opacity="0.5" d="M242.633 378.154C236.898 375.711 233.5 370.401 238.385 368.171C233.287 372.95 243.164 377.41 247.518 377.729C250.386 377.941 256.652 378.26 260.687 379.11C263.979 379.747 267.272 379.534 268.228 378.26V380.065C268.228 380.915 268.121 383.145 263.661 382.827C259.094 382.508 256.864 381.552 256.652 381.234C256.439 380.915 255.908 380.065 255.908 380.065C255.908 380.065 248.155 380.384 242.633 378.154V378.154Z" fill="black"/>
<path d="M279.485 274.076C279.91 280.661 277.042 294.679 275.874 302.538C274.812 310.397 272.794 343.638 271.944 351.922C271.307 358.613 269.077 376.773 267.803 377.729C266.528 378.685 257.607 377.41 253.89 374.968C251.447 373.269 248.686 369.976 249.111 367.746C249.536 365.516 252.403 363.392 252.828 351.922C253.147 340.452 251.872 319.849 252.191 304.237C252.51 288.52 253.253 270.784 253.253 270.784L279.485 274.076V274.076Z" fill="#28419D"/>
<path d="M301.469 197.08C302.743 198.567 303.593 202.921 303.911 205.151C304.23 207.381 309.965 225.648 310.921 229.259C311.877 232.87 311.77 238.923 311.558 244.552C311.452 250.287 311.452 256.978 311.346 258.04C311.239 259.102 307.097 260.164 304.018 259.739C300.938 259.314 299.132 258.464 298.814 255.916C298.495 253.367 296.902 241.153 294.778 236.693C292.654 232.233 289.574 224.267 289.574 224.267L301.469 197.08Z" fill="#E6AA01"/>
<path d="M245.076 247.419L244.969 256.765C244.969 256.765 240.615 257.933 237.429 256.234C234.243 254.535 231.907 251.243 231.907 250.074C231.907 248.906 232.225 247.526 233.287 247.526C234.455 247.526 235.411 249.225 236.686 247.844C238.066 246.464 237.111 245.508 236.049 244.764C235.093 244.021 234.668 242.109 236.898 242.322C237.96 242.428 238.916 243.171 239.553 243.702C240.509 244.552 241.465 245.614 242.739 246.676C244.226 247.844 245.076 247.419 245.076 247.419V247.419Z" fill="#FFD04C"/>
<path d="M282.777 190.07L286.6 190.92L286.494 191.876C286.494 191.876 292.335 191.132 296.477 193.363C300.725 195.593 302.955 197.611 302.424 201.115C301.787 204.726 298.282 217.152 295.946 223.524C293.609 229.896 292.229 233.401 292.866 238.605C293.503 243.808 300.406 268.022 299.982 271.74C299.557 275.457 293.822 278.218 286.706 280.13C279.378 282.041 252.828 283.528 252.297 278.112C251.766 272.695 251.766 258.04 251.766 258.04C251.766 258.04 244.226 259.42 242.845 257.615C241.464 255.809 239.871 252.836 241.571 249.225C243.164 245.614 243.801 245.508 244.863 245.189C245.925 244.87 250.704 244.127 252.085 242.322C253.465 240.622 252.403 234.038 252.403 225.648C252.403 217.258 252.085 211.204 255.802 207.275C259.519 203.346 263.767 197.823 267.271 196.549C271.944 195.062 283.52 195.38 282.777 190.07V190.07Z" fill="#E6AA01"/>
<path opacity="0.2" d="M285.645 190.814C285.645 190.814 285.539 196.336 277.786 197.292C270.458 198.248 257.607 206.319 257.607 206.319C257.607 206.319 271.414 198.567 277.68 198.036C287.025 197.292 286.601 190.814 286.601 190.814H285.645Z" fill="black"/>
<path d="M268.546 183.167C268.44 184.017 267.484 181.787 266.74 179.875C265.997 177.857 264.616 175.308 263.873 172.441C263.13 169.573 262.492 170.635 262.386 169.361C262.28 168.087 268.44 159.909 279.697 163.838C290.955 167.768 288.193 180.831 287.237 184.442C286.175 188.052 282.883 192.194 279.697 192.194C276.511 192.088 272.794 189.645 272.475 184.973C272.157 180.3 268.652 181.256 268.546 183.167V183.167Z" fill="#7616EF"/>
<path d="M227.659 341.196C231.27 343.851 234.881 345.444 238.067 347.143C241.253 348.842 242.846 350.435 242.421 351.922C242.103 353.515 239.235 355.32 234.35 355.108C229.465 354.896 221.606 350.435 220.119 350.329C218.632 350.223 218.951 351.179 217.889 351.179C216.827 351.179 211.092 350.117 210.454 349.373C209.817 348.63 210.561 343.32 210.561 343.32L227.659 341.196V341.196Z" fill="#1E033C"/>
<path opacity="0.5" d="M210.454 349.373C210.135 348.948 210.135 347.462 210.242 346.081C211.622 347.355 213.959 348.099 216.295 348.205C219.056 348.311 222.349 348.842 226.172 351.285C229.995 353.727 243.164 355.745 241.677 349.798C242.315 350.541 242.633 351.285 242.421 352.028C242.102 353.621 239.235 355.427 234.349 355.214C229.464 355.002 221.605 350.541 220.118 350.435C218.632 350.329 218.95 351.285 217.888 351.285C216.826 351.179 211.091 350.117 210.454 349.373Z" fill="black"/>
<path d="M225.322 257.721C226.278 264.73 226.703 289.369 225.747 300.52C224.898 311.778 225.004 328.027 225.853 333.655C226.491 337.797 228.508 340.028 227.977 341.514C227.446 343.107 222.667 346.4 217.145 347.037C211.728 347.674 209.498 346.824 208.755 344.7C208.118 342.576 205.781 319.743 205.038 305.406C204.401 292.661 203.232 257.509 203.232 257.509H225.322V257.721Z" fill="#28419D"/>
<path d="M194.736 353.94C195.586 356.382 199.303 362.436 200.046 363.923C200.896 365.41 202.489 367.427 201.427 368.914C200.365 370.507 195.373 372.419 190.382 369.976C185.39 367.64 184.541 361.799 184.541 361.799H183.691C183.691 361.799 182.629 359.356 182.629 357.657C182.629 355.958 182.948 354.896 182.948 354.896L194.736 353.94Z" fill="#1E033C"/>
<path opacity="0.5" d="M184.541 361.905H183.691C183.691 361.905 182.629 359.462 182.629 357.763C182.629 356.064 182.948 355.002 182.948 355.002H183.054C183.16 355.214 183.16 355.427 183.16 355.639C183.373 357.02 185.815 364.454 187.196 366.259C190.807 370.932 200.578 371.994 201.533 366.578C201.852 367.427 201.958 368.277 201.427 368.914C200.365 370.507 195.374 372.419 190.382 369.976C185.391 367.64 184.541 361.905 184.541 361.905V361.905Z" fill="black"/>
<path d="M212.684 258.465C212.578 263.031 207.905 268.341 206.524 274.82C205.144 281.298 200.896 313.371 199.834 322.823C198.241 336.523 196.86 356.489 196.435 356.701C196.01 356.808 192.506 354.684 189.107 356.489C185.709 358.294 181.886 357.551 180.717 356.701C179.655 355.852 180.08 346.718 180.505 341.196C180.824 335.78 182.523 294.892 182.417 289.369C182.31 283.847 180.505 268.872 180.93 265.368C181.355 261.757 183.372 257.615 183.372 257.615L212.684 258.465V258.465Z" fill="#28419D"/>
<path d="M223.517 208.231C226.172 212.479 228.933 219.17 230.526 223.63C232.119 228.091 236.261 236.056 236.58 237.118C236.792 238.074 236.686 242.003 232.969 243.172C229.252 244.34 227.447 245.083 226.809 244.127C226.278 243.278 222.349 238.817 222.349 238.817L223.517 208.231V208.231Z" fill="#656565"/>
<path opacity="0.15" d="M223.517 208.231C226.172 212.479 228.933 219.17 230.526 223.63C232.119 228.091 236.261 236.056 236.58 237.118C236.792 238.074 236.686 242.003 232.969 243.172C229.252 244.34 227.447 245.083 226.809 244.127C226.278 243.278 222.349 238.817 222.349 238.817L223.517 208.231V208.231Z" fill="black"/>
<path d="M209.923 178.813C212.047 180.512 220.756 192.938 221.18 208.231C221.605 223.524 217.782 230.64 217.782 230.64C217.782 230.64 206.206 199.735 199.834 192.938C193.462 186.141 193.887 180.725 193.887 180.725C193.887 180.725 197.922 177.963 202.276 177.645C206.631 177.326 209.923 178.813 209.923 178.813V178.813Z" fill="#7616EF"/>
<path opacity="0.2" d="M210.242 189.433L207.799 196.23L201.002 191.664L208.224 198.036L210.561 189.752L211.623 189.54L215.658 194.106V190.071C215.658 190.389 215.34 192.088 215.34 192.088L211.623 188.478L210.242 189.433Z" fill="black"/>
<path d="M213.322 194.319L213.428 190.283L211.835 188.584L210.242 189.327L209.18 192.195L211.623 194.637C211.623 194.637 213.853 213.86 214.065 216.302C214.278 218.745 217.358 230.109 217.358 230.109C217.358 230.109 222.137 216.833 221.924 216.621C221.818 216.302 213.322 194.319 213.322 194.319Z" fill="#5E12BF"/>
<path d="M174.876 267.173C175.195 268.235 175.089 269.297 177 270.571C178.806 271.952 180.292 274.395 180.717 276.094C181.142 277.793 182.523 279.811 182.735 281.085C182.841 282.36 181.885 283.209 180.823 282.254C179.761 281.404 177.744 277.475 176.682 277.156C175.62 276.837 175.301 280.236 175.195 281.404C175.089 282.466 176.788 284.59 177.531 285.652C178.381 286.714 177.637 287.67 176.469 287.351C175.301 287.033 170.203 284.271 168.929 278.961C167.548 273.651 168.185 266.217 168.185 266.217L174.876 267.173V267.173Z" fill="#FFD04C"/>
<path d="M177.213 266.43L177.319 268.554C177.319 268.554 173.284 269.51 169.991 269.191C166.699 268.872 165.956 268.129 165.956 268.129L166.274 264.943L177.213 266.43Z" fill="white"/>
<path d="M205.994 177.857C208.224 178.176 215.764 175.733 220.012 182.212C224.26 188.69 225.004 195.593 225.216 201.647C225.429 207.7 226.491 247.313 226.491 254.217C226.491 261.226 226.385 264.306 223.305 265.262C219.694 266.43 217.039 263.244 216.933 261.226C216.826 259.102 217.251 228.622 217.251 228.622C217.251 228.622 222.667 215.878 219.163 201.222C215.658 186.566 210.136 181.681 210.136 181.681L205.781 177.964L205.994 177.857V177.857Z" fill="#E6AA01"/>
<path d="M195.161 179.557C195.161 179.557 190.913 183.061 188.577 184.973C186.24 186.885 175.939 196.124 174.877 197.399C173.815 198.673 172.54 199.947 172.54 203.452C172.54 206.957 172.116 212.373 170.735 216.09C166.381 227.347 166.168 232.233 165.85 237.118C165.531 242.003 164.894 265.368 164.894 265.368C164.894 265.368 166.274 266.642 171.691 267.279C177.213 267.917 178.488 267.173 178.488 267.173C178.488 267.173 180.081 252.093 180.93 246.676C182.311 238.392 186.24 229.578 186.24 229.578C186.24 229.578 186.878 233.295 186.559 235.525C186.24 237.755 182.205 256.022 181.355 258.996C180.505 261.863 179.55 265.474 179.55 265.474C179.55 265.474 184.01 272.483 196.117 271.952C208.224 271.421 215.446 267.704 216.933 260.27C218.42 252.836 218.738 234.251 216.827 223.843C214.915 213.435 206.525 196.655 201.002 190.495C195.48 184.336 195.161 179.557 195.161 179.557Z" fill="#E6AA01"/>
<path opacity="0.2" d="M216.401 228.728C216.401 228.728 212.684 219.276 206.949 211.205C202.914 205.682 198.666 202.071 198.666 202.071L198.984 198.46L194.63 196.867L191.975 182.318L191.444 182.849L193.249 197.823L198.135 198.885L197.073 202.602C197.073 202.602 202.808 207.594 206.631 212.373C210.773 217.471 216.401 228.728 216.401 228.728Z" fill="black"/>
<path d="M211.834 156.617C215.87 159.591 216.082 167.556 215.976 172.972C215.87 178.388 215.233 182.849 214.383 183.274C213.534 183.698 211.834 183.911 211.834 183.911C211.834 183.911 211.941 189.115 210.666 189.327C209.392 189.646 202.382 186.353 199.09 182.955C195.798 179.663 195.373 178.919 195.373 178.919C195.373 178.919 190.806 170.529 191.55 163.945C192.506 157.36 200.577 148.439 211.834 156.617V156.617Z" fill="#FFD04C"/>
<path d="M215.339 159.909C215.976 160.971 213.746 160.759 210.56 165.644C207.268 170.529 203.551 168.405 202.489 168.405C202.17 171.06 199.94 170.636 197.922 172.972C197.922 172.972 197.179 170.317 195.692 170.211C194.205 170.105 194.736 174.671 194.736 174.671C194.736 174.671 194.524 176.477 193.462 176.795C192.4 177.114 188.47 167.449 190.488 161.184C193.568 151.201 208.011 147.696 215.339 159.909Z" fill="#7616EF"/>
<path d="M235.624 237.543C235.093 237.012 231.801 237.118 229.995 238.923C228.19 240.729 227.659 242.747 227.978 243.278C228.19 243.703 230.526 243.49 233.182 241.685C235.73 239.879 236.155 238.286 235.624 237.543V237.543Z" fill="white"/>
<path d="M234.987 237.968C233.712 237.543 231.694 238.074 230.42 239.348C229.146 240.516 228.615 241.685 228.721 242.534C228.827 243.384 229.783 245.402 229.995 246.357C230.208 247.207 232.863 250.818 233.712 251.986C234.456 253.261 235.411 253.792 235.624 255.703C235.836 257.615 236.473 258.571 237.854 258.677C239.235 258.783 244.332 255.597 243.377 251.03C242.421 246.57 240.615 243.915 239.553 242.428C239.022 241.685 236.792 240.516 236.049 239.985C235.199 239.348 235.518 238.18 234.987 237.968V237.968Z" fill="#FFD04C"/>
<defs>
<linearGradient id="paint0_linear" x1="9.51142" y1="328.855" x2="549.733" y2="328.855" gradientUnits="userSpaceOnUse">
<stop stop-color="#00A8FF"/>
<stop offset="0.0001" stop-color="#7F02EF"/>
<stop offset="0.807292" stop-color="#3BA7ED"/>
<stop offset="0.989583" stop-color="#1DD0F7"/>
<stop offset="1" stop-color="#1FEAEC"/>
</linearGradient>
<linearGradient id="paint1_linear" x1="471.211" y1="280.767" x2="391.484" y2="283.276" gradientUnits="userSpaceOnUse">
<stop stop-color="#E76C6B"/>
<stop offset="1" stop-color="#FBB78E"/>
</linearGradient>
<linearGradient id="paint2_linear" x1="-398.846" y1="3264.36" x2="5837.54" y2="3097.4" gradientUnits="userSpaceOnUse">
<stop stop-color="#FFBC00"/>
<stop offset="1" stop-color="#FBB78E"/>
</linearGradient>
<linearGradient id="paint3_linear" x1="6900.92" y1="1113.22" x2="2417.14" y2="3859.63" gradientUnits="userSpaceOnUse">
<stop stop-color="#28419D"/>
<stop offset="1" stop-color="#174B8C"/>
</linearGradient>
<linearGradient id="paint4_linear" x1="391.139" y1="1436.33" x2="5823.06" y2="1436.33" gradientUnits="userSpaceOnUse">
<stop stop-color="#FEBB15"/>
<stop offset="1" stop-color="#FBB78E"/>
</linearGradient>
<linearGradient id="paint5_linear" x1="437.009" y1="273.735" x2="434.187" y2="320.069" gradientUnits="userSpaceOnUse">
<stop stop-color="#534741"/>
<stop offset="1" stop-color="#D1985C"/>
</linearGradient>
<linearGradient id="paint6_linear" x1="435.672" y1="267.495" x2="452.459" y2="267.495" gradientUnits="userSpaceOnUse">
<stop stop-color="#25CE81"/>
<stop offset="1" stop-color="#C3E421"/>
</linearGradient>
<linearGradient id="paint7_linear" x1="1147.84" y1="743.325" x2="1445.82" y2="743.325" gradientUnits="userSpaceOnUse">
<stop stop-color="#25CE81"/>
<stop offset="1" stop-color="#C3E421"/>
</linearGradient>
<linearGradient id="paint8_linear" x1="750.397" y1="471.814" x2="958.718" y2="471.814" gradientUnits="userSpaceOnUse">
<stop stop-color="#25CE81"/>
<stop offset="1" stop-color="#C3E421"/>
</linearGradient>
<linearGradient id="paint9_linear" x1="827.431" y1="506.079" x2="902.744" y2="506.079" gradientUnits="userSpaceOnUse">
<stop stop-color="#25CE81"/>
<stop offset="1" stop-color="#C3E421"/>
</linearGradient>
<linearGradient id="paint10_linear" x1="1153.31" y1="646.549" x2="1364.46" y2="646.549" gradientUnits="userSpaceOnUse">
<stop stop-color="#25CE81"/>
<stop offset="1" stop-color="#C3E421"/>
</linearGradient>
<linearGradient id="paint11_linear" x1="485.671" y1="473.818" x2="507.299" y2="473.818" gradientUnits="userSpaceOnUse">
<stop stop-color="#25CE81"/>
<stop offset="1" stop-color="#C3E421"/>
</linearGradient>
<linearGradient id="paint12_linear" x1="566.351" y1="508.333" x2="717.297" y2="508.333" gradientUnits="userSpaceOnUse">
<stop stop-color="#25CE81"/>
<stop offset="1" stop-color="#C3E421"/>
</linearGradient>
<linearGradient id="paint13_linear" x1="853.764" y1="761.496" x2="1211.84" y2="761.496" gradientUnits="userSpaceOnUse">
<stop stop-color="#25CE81"/>
<stop offset="1" stop-color="#C3E421"/>
</linearGradient>
<linearGradient id="paint14_linear" x1="895.432" y1="780.754" x2="1104.35" y2="780.754" gradientUnits="userSpaceOnUse">
<stop stop-color="#25CE81"/>
<stop offset="1" stop-color="#C3E421"/>
</linearGradient>
<linearGradient id="paint15_linear" x1="722.017" y1="769.554" x2="1185.13" y2="769.554" gradientUnits="userSpaceOnUse">
<stop stop-color="#25CE81"/>
<stop offset="1" stop-color="#C3E421"/>
</linearGradient>
<linearGradient id="paint16_linear" x1="824.06" y1="720.962" x2="1102.59" y2="720.962" gradientUnits="userSpaceOnUse">
<stop stop-color="#25CE81"/>
<stop offset="1" stop-color="#C3E421"/>
</linearGradient>
<linearGradient id="paint17_linear" x1="240.069" y1="470.846" x2="402.682" y2="391.308" gradientUnits="userSpaceOnUse">
<stop stop-color="#FBB03B"/>
<stop offset="1" stop-color="#F15A24"/>
</linearGradient>
<linearGradient id="paint18_linear" x1="-136.833" y1="2798.06" x2="7125.82" y2="-2235.78" gradientUnits="userSpaceOnUse">
<stop stop-color="#FBB03B"/>
<stop offset="1" stop-color="#F15A24"/>
</linearGradient>
<linearGradient id="paint19_linear" x1="788.756" y1="2052.2" x2="8653.38" y2="-4034.56" gradientUnits="userSpaceOnUse">
<stop stop-color="#FBB03B"/>
<stop offset="1" stop-color="#F15A24"/>
</linearGradient>
<linearGradient id="paint20_linear" x1="133.412" y1="289.81" x2="212.797" y2="262.151" gradientUnits="userSpaceOnUse">
<stop stop-color="#292376"/>
<stop offset="1" stop-color="#5D278F" stop-opacity="0"/>
</linearGradient>
<linearGradient id="paint21_linear" x1="192.627" y1="210.345" x2="209.566" y2="210.345" gradientUnits="userSpaceOnUse">
<stop stop-color="#292376"/>
<stop offset="1" stop-color="#5D278F"/>
</linearGradient>
<linearGradient id="paint22_linear" x1="195.938" y1="240.043" x2="219.903" y2="230.009" gradientUnits="userSpaceOnUse">
<stop stop-color="#5D278F"/>
<stop offset="1" stop-color="#292376"/>
</linearGradient>
<linearGradient id="paint23_linear" x1="842.044" y1="3510.98" x2="1146.08" y2="3291.09" gradientUnits="userSpaceOnUse">
<stop stop-color="#292376"/>
<stop offset="1" stop-color="#5D278F"/>
</linearGradient>
<linearGradient id="paint24_linear" x1="152.289" y1="234.552" x2="152.289" y2="192.396" gradientUnits="userSpaceOnUse">
<stop stop-color="#DBF9EA"/>
<stop offset="0.97" stop-color="white"/>
</linearGradient>
<linearGradient id="paint25_linear" x1="244.429" y1="8362.87" x2="3664.81" y2="8362.87" gradientUnits="userSpaceOnUse">
<stop stop-color="#FFBC00"/>
<stop offset="1" stop-color="#7F02EF"/>
</linearGradient>
<linearGradient id="paint26_linear" x1="252.596" y1="3250.4" x2="3656.38" y2="3250.4" gradientUnits="userSpaceOnUse">
<stop stop-color="#D79F01"/>
<stop offset="0.97" stop-color="white"/>
</linearGradient>
<linearGradient id="paint27_linear" x1="181.018" y1="212.323" x2="99.8972" y2="212.323" gradientUnits="userSpaceOnUse">
<stop stop-color="#DBF9EA" stop-opacity="0"/>
<stop offset="1" stop-color="#8CCACE"/>
</linearGradient>
<linearGradient id="paint28_linear" x1="177.183" y1="222.357" x2="107.065" y2="222.357" gradientUnits="userSpaceOnUse">
<stop stop-color="#7A0EEF"/>
<stop offset="1" stop-color="#458DED"/>
</linearGradient>
<linearGradient id="paint29_linear" x1="198.791" y1="326.647" x2="198.798" y2="326.647" gradientUnits="userSpaceOnUse">
<stop stop-color="#5D278F"/>
<stop offset="1" stop-color="#292376"/>
</linearGradient>
<linearGradient id="paint30_linear" x1="387.222" y1="298.133" x2="232.948" y2="321.16" gradientUnits="userSpaceOnUse">
<stop stop-color="#5D278F" stop-opacity="0"/>
<stop offset="1" stop-color="#292376"/>
</linearGradient>
<linearGradient id="paint31_linear" x1="289.479" y1="220.29" x2="324.78" y2="214.436" gradientUnits="userSpaceOnUse">
<stop stop-color="#DBF9EA"/>
<stop offset="1" stop-color="#C0DDE2"/>
</linearGradient>
<linearGradient id="paint32_linear" x1="289.479" y1="220.29" x2="324.78" y2="214.436" gradientUnits="userSpaceOnUse">
<stop stop-color="#DBF9EA"/>
<stop offset="1" stop-color="#C0DDE2"/>
</linearGradient>
<linearGradient id="paint33_linear" x1="4800.27" y1="4987.34" x2="8235.9" y2="4987.34" gradientUnits="userSpaceOnUse">
<stop stop-color="#DBF9EA"/>
<stop offset="1" stop-color="#C0DDE2"/>
</linearGradient>
<linearGradient id="paint34_linear" x1="16513.6" y1="19210.8" x2="1874.65" y2="20421.6" gradientUnits="userSpaceOnUse">
<stop stop-color="#DBF9EA"/>
<stop offset="1" stop-color="#C0DDE2"/>
</linearGradient>
<linearGradient id="paint35_linear" x1="4400.85" y1="22753.5" x2="10947.6" y2="21712.9" gradientUnits="userSpaceOnUse">
<stop stop-color="#DBF9EA"/>
<stop offset="1" stop-color="#C0DDE2"/>
</linearGradient>
<linearGradient id="paint36_linear" x1="33709.5" y1="32368" x2="-5902.92" y2="32368" gradientUnits="userSpaceOnUse">
<stop stop-color="#DBF9EA"/>
<stop offset="1" stop-color="#C0DDE2"/>
</linearGradient>
<linearGradient id="paint37_linear" x1="170.213" y1="25234.7" x2="33560" y2="25234.7" gradientUnits="userSpaceOnUse">
<stop stop-color="#DBF9EA"/>
<stop offset="1" stop-color="#C0DDE2"/>
</linearGradient>
<linearGradient id="paint38_linear" x1="139.003" y1="63.8459" x2="455.705" y2="246.35" gradientUnits="userSpaceOnUse">
<stop stop-color="#5D278F"/>
<stop offset="1" stop-color="#292376"/>
</linearGradient>
<linearGradient id="paint39_linear" x1="153.581" y1="72.8168" x2="437.009" y2="236.263" gradientUnits="userSpaceOnUse">
<stop stop-color="#7B0CEF"/>
<stop offset="1" stop-color="#3CA5ED"/>
</linearGradient>
<linearGradient id="paint40_linear" x1="1022.25" y1="2641.3" x2="1098.31" y2="2641.3" gradientUnits="userSpaceOnUse">
<stop stop-color="#5D278F"/>
<stop offset="1" stop-color="#292376"/>
</linearGradient>
<linearGradient id="paint41_linear" x1="138.959" y1="63.8922" x2="369.781" y2="197.01" gradientUnits="userSpaceOnUse">
<stop stop-color="white" stop-opacity="0.25"/>
<stop offset="1" stop-color="#DBF9EA" stop-opacity="0"/>
</linearGradient>
</defs>
</svg>
