<svg width="64" height="55" viewBox="0 0 64 55" fill="none" xmlns="http://www.w3.org/2000/svg">
<path d="M0.0590472 23.8713L0.0590604 12.362C2.6167 10.2306 9.1335 10.6569 14.5523 10.6569H46.0965C49.8477 10.6569 49.933 12.7882 49.933 15.3458V41.7748C50.0751 42.9115 50.274 46.208 49.933 50.3003C49.592 54.3925 47.5854 54.563 46.0965 54.563H35.0134C35.5818 50.8686 34.5872 43.5652 26.0617 43.9062C17.5363 44.2472 16.2574 51.1528 16.6837 54.563H2.61668C-0.618499 54.563 0.0590664 45.6112 0.0590472 41.7748C4.53178 41.7748 12.6767 40.9223 11.9947 32.3968C11.3127 23.8713 3.75341 23.1609 0.0590472 23.8713Z" fill="#5C50EB"/>
<path d="M14.1261 3.83646V11.9356H19.6676V6.82037C19.6676 6.10991 20.0086 4.689 21.3727 4.689H29.8982C30.4665 4.689 31.6033 5.11528 31.6033 6.82037V11.9356H36.7185V3.83646C36.7185 0.767291 33.8767 0 32.4558 0H18.8151C14.7228 0 13.984 2.55764 14.1261 3.83646Z" fill="#5C50EB"/>
<circle cx="53.7695" cy="32.3968" r="10.2306" fill="#5C50EB"/>
</svg>