<svg width="80" height="64" viewBox="0 0 80 64" fill="none" xmlns="http://www.w3.org/2000/svg">
<g clip-path="url(#clip0)">
<path d="M52.5726 4.57358C58.8831 4.57358 63.9997 31.1789 63.9997 63.9984H73.1434C73.1434 28.6534 63.9323 0.00170898 52.5728 0.00170898C46.1095 0.00170898 40.3431 8.61267 36.5725 22.0778C32.8028 8.61267 27.0345 0.00170898 20.5717 0.00170898C9.21216 0.00170898 0 28.6534 0 63.9984H9.14482C9.14482 31.1789 14.2619 4.57358 20.5717 4.57358C26.8833 4.57358 32.0017 29.1324 32.0017 59.429H41.1433C41.1436 29.1324 46.2604 4.57358 52.5726 4.57358V4.57358ZM77.7202 59.429C78.9604 59.429 80 60.411 80 61.7029C80 63.0154 78.9604 63.9979 77.7202 63.9979C76.4756 63.9979 75.4273 63.0148 75.4273 61.7029C75.4273 60.411 76.4756 59.429 77.7202 59.429ZM77.7202 63.6644C78.7706 63.6644 79.5862 62.8204 79.5862 61.7037C79.5862 60.6065 78.77 59.7635 77.7202 59.7635C76.6568 59.7635 75.8419 60.6065 75.8419 61.7037C75.8416 62.8201 76.6568 63.6644 77.7202 63.6644ZM76.8312 60.3761H77.8613C78.4917 60.3761 78.7889 60.6271 78.7889 61.1387C78.7889 61.6215 78.4877 61.8232 78.0928 61.8652L78.8512 63.0462H78.406L77.6834 61.8973H77.2463V63.0462H76.8317L76.8312 60.3761V60.3761ZM77.2461 61.5622H77.678C78.0417 61.5622 78.3768 61.5441 78.3768 61.1209C78.3768 60.7658 78.0728 60.7101 77.7934 60.7101H77.2466L77.2461 61.5622Z" fill="#FFC300"/>
</g>
<defs>
<clipPath id="clip0">
<rect width="80" height="64" fill="white"/>
</clipPath>
</defs>
</svg>
